# xmcd
#
# Track frame offsets: 
#        150
#        26138
#        51392
#        77012
#        100177
#
# Disc length: 3588 seconds
#
# Revision: 0
# Processed by: cddbd v1.5.2PL0 Copyright (c) Steve Scherf et al.
# Submitted via: ExactAudioCopy v0.99pb4
#
DISCID=390e0205
DTITLE=Sasha - The emFire Collection: Mixed, Unmixed and Remixed. Disc 2
DTITLE=The Originals and Bonus Score
DYEAR=2008
DGENRE=Electronic
TTITLE0=Coma (Spangled Subdub)
TTITLE1=Park It In The Shade (Exclusive emFire edit)
TTITLE2=Who Killed Sparky? (Exclusive emFire edit)
TTITLE3=Mongoose (Exclusive emFire edit)
TTITLE4=New Emissions Of Light And Sound (Film Score)
EXTD=
EXTT0=
EXTT1=
EXTT2=
EXTT3=
EXTT4=
PLAYORDER=
